<svg xmlns="http://www.w3.org/2000/svg" width="100%" height="100%" viewBox="0 0 232.022 121.78">
  <path fill="currentcolor" id="Path_3" data-name="Path 3" d="M1364.269,223.988,1307.2,283.337l-24.253-37.7L1199.8,345.768h232.022Zm-50.967,97.5c-6.1,5.3-21.52,16.6-34.369,9.538s-10.6-32.5-10.6-32.5l-10.28-1.413,20.549-28.693,13.77,21.67,22.634,5.372,15.319,23.2S1319.4,316.192,1313.3,321.491Zm47.332-43.936-16.175,19.207-6.425-17.664H1323.58l40.689-44.158s-2.785,15.19,1.713,20.489,8.785,7.8,11.034,13.1,3.58,15.594,3.58,15.594Z" transform="translate(-1199.802 -223.988)"/>
</svg>
