<svg xmlns="http://www.w3.org/2000/svg" width="100%" height="100%" viewBox="0 0 225.289 142.925">
  <path fill="currentcolor" id="Path_4" data-name="Path 4" d="M1366.552,203.285s-37.174,50.7-65.389,83.84c-4.655,5.469-23.554-25.737-23.554-25.737l-40.574,84.822,225.289-.443L1437.05,229.857s-29.593,38.056-31.194,35.783A698.077,698.077,0,0,1,1366.552,203.285Zm-11.4,62.355c-8.177-6.535-20.273,11.694-20.273,11.694s-13.451-9.608-18.448-1.336,3.262,38.087,0,39.178c-1.018.341-20.16-9.67-27.972-10.9s-26.784,6.951-26.784,6.951,10.048-15.459,12.215-20.416,6.514-12.326,6.514-12.326l19.216,17.562s17.928-18.255,26.5-29.125,18.772-22.512,18.772-22.512l10.259-12.774,11.4-13.914s10.075,16.049,14.573,21.348-2.249,8.164,0,13.463,2.952,8.479,13.151,11.106,1.843,10.915,9.34,10.915,15.952-8.916,15.952-8.916l2.757-11.116,10.572-10.111s2.514,9.089,2.816,11.447c.74,5.793,2.317,8.576,3.433,16.486a61.471,61.471,0,0,0,4.211,14.779s-20.7-.134-30.948-5.016-17.425-24.912-17.425-24.912-1.055,20.216-13.859,21.292S1363.329,272.175,1355.152,265.641Z" transform="translate(-1237.035 -203.285)"/>
</svg>
