<svg id="pace2" data-name="pace2" xmlns="http://www.w3.org/2000/svg" width="100%" height="100%" viewBox="0 0 56.35 89.396">
  <path fill="currentcolor" id="Path_217" data-name="Path 217" d="M916.2,1670.673c.291-1.173.2-.39,1.858-1.858s3.031-.781,4.495-1.368.881-1.368,2.838-4.1a47.317,47.317,0,0,1,8.6-9.094c2.835-2.053,1.857.882,2.933-3.323s2.643-10.853,1.567-12.123-1.37-6.354-1.37-6.354c-.783.1-.682.195-.194-1.175a16.084,16.084,0,0,0,.683-2.932,6.114,6.114,0,0,1-3.227-.391c-1.173-.683-2.541-.782-4.2-4.3s-.392-6.844-.2-8.506,1.272-.293,1.956-2.834.1-2.347.783-2.934.586-1.661,1.27-3.226,1.271.292,3.03-.88a9.206,9.206,0,0,0,3.423-4.789c.2-1.174,1.759-2.836,2.248-3.521s.783-.392.978,0,1.565,0,2.64-.293a2.3,2.3,0,0,1,2.151.293,6.45,6.45,0,0,0,2.64,1.174,4.472,4.472,0,0,0,1.955-1.369c.292-.49,1.27-.392,1.857.1s1.368,1.663,2.151,2.445a2.543,2.543,0,0,0,2.151.977c.685-.1.1-1.564.194-2.639a.75.75,0,0,0-.114-.5,1.219,1.219,0,0,0,1.093.006c.978-.488.49-1.662,3.128-2.444s5.672,2.054,6.844,2.641-.294,1.368,1.465,3.91-3.029,5.278-3.029,5.278c.489,1.175-1.954,1.762-1.954,1.762.2,2.346-1.662.781-1.662.781,0,.782-1.567.782-1.567.782.294,1.173-.977,1.271-.977,1.271l-.877,1.759c.587-1.465,3.519-1.27,3.617-1.564s.391-.293,1.271-.391.488.978.782,1.076-.1.977.782,1.174,0,.977,0,.977a2.1,2.1,0,0,1,.112,1c.824.846,1.9,2.22,1.8,3.587a2.817,2.817,0,0,1-1.617,2.234,1.781,1.781,0,0,1-.612.095,2.354,2.354,0,0,1-1.178-.324,5,5,0,0,1-1.989-3.037c-.2.264-.331.455-.331.455l-5.329,7.525c1.251.954,3.929,3.005,4.153,3.228.257.258,1.417.289,2.029.36-.007-.746.266-1.634,1.687-1.337,0,0,2.106.424.6,2.053a2.246,2.246,0,0,1,.379.293c.683.684-.1,1.565-.392,2.054s-.976,1.27-1.369,2.052c-.355.714-.4.7-1.442.761l-8.822,20.943,0,0c-.5,1.983-.946,4.828-1.17,6.164a56.2,56.2,0,0,0-.1,6.94c0,1.37.294,4.3,1.173,5.475a6.956,6.956,0,0,0,2.641,1.857,18.254,18.254,0,0,1,4.4,2.249c1.174,1.075.489,2.347-.488,2.444s-5.084.294-6.843.294a51.019,51.019,0,0,1-5.475-.1c-1.759-.2-4.106.391-4.3-.879s.682-3.423,1.172-5.183a13.091,13.091,0,0,0,.587-6.551c-.49-3.128.489-5.864.391-10.753s.392-3.912-.1-4.987a6.3,6.3,0,0,0-2.052-2.053s-.979,3.032-1.664,4.5-4.691,5.086-5.668,6.162a8.039,8.039,0,0,1-1.619,1.131l-7.67,12.751-.489-.294,7.141-11.874c-1.545.878-3.2,1.813-3.427,2.488a38.38,38.38,0,0,1-3.224,5.867c-.784,1.075-2.835,2.542-3.227,3.422a5.925,5.925,0,0,0-.392,3.226c.2,1.075-.1,1.564,1.663,2.542s-.1,3.031-.1,3.031-.976-.2-2.151-.392-4.2-4.595-4.987-6.061a14.3,14.3,0,0,0-3.129-4.5C915.416,1671.943,915.905,1671.847,916.2,1670.673Zm50.8-50.426a1.721,1.721,0,0,0,1.266.22,2.263,2.263,0,0,0,1.29-1.754,4.51,4.51,0,0,0-1.452-2.945c-.288.231-.839.14-1.55.352a3.552,3.552,0,0,0-1.372,1.061C965.691,1619.1,966.423,1619.91,967,1620.247Zm-5.235-2.367c-.879.1-2.84,1.467-2.351,2.249.412.659-.56,3.807-.878,4.786l4.4-6.839S962.64,1617.782,961.762,1617.88Zm-8.021,20.726a37.06,37.06,0,0,0,2.739,11.537,6.854,6.854,0,0,1,.587,1.726l6.973-16.689c-1.048-.073-1.3-.843-2.183-1.462-.979-.684-1.076.1-2.347-.2a2.864,2.864,0,0,0-1.955.1,11.124,11.124,0,0,0,.783,3.521l-.686.1c-.78-.587-1.661-4.009-1.661-4.009s.2-.39-1.077,1.076S953.644,1634.892,953.741,1638.606Z" transform="translate(-915.868 -1594.574)"/>
  <path id="Path_218" data-name="Path 218" d="M930.335,1597.147a4.116,4.116,0,0,0-1.548-.581S929.955,1596.568,930.335,1597.147Z" transform="translate(-886.905 -1594.574)"/>
</svg>
