<svg xmlns="http://www.w3.org/2000/svg" width="100%" height="100%" viewBox="0 0 45.093 88.893">
  <g id="Group_1" data-name="Group 1" transform="translate(-379.121 -1700.971)">
    <path fill="currentcolor" id="Path_231" data-name="Path 231" d="M390.061,1726.668c.207,1.231.585,7.2.585,7.2l1.244,5.055a36.66,36.66,0,0,1,1.964,3.642c.105.512-.357,4.2-.1,5.692s0,2.257.975,3.026.718.82,1.026,2,.41,2.771.718,4.1a13.618,13.618,0,0,0,.717,2.257c0,.154-.1.358-.563.307a.915.915,0,0,0-.975.513c-.1.308.051,1.486,0,2.2s.153.668.616.821,2.308.719,2.308.719c-1.848,2.154-.874,8-.36,10.206a7.22,7.22,0,0,1-.1,4.358,15.139,15.139,0,0,1-1.076,3.233c-.258.459-.154.871-.769,1.127s-.924-.052-1.18.358a3.45,3.45,0,0,0-.256,2.257c.256.409.2.514.051,1.641a7.152,7.152,0,0,1-.985,2.477h15.949a2.15,2.15,0,0,0,.882-1.913c-.049-.924-1.178-.924-2.05-.82a3.568,3.568,0,0,1-2.771-.77c-.614-.668-.154-1.949-.2-2.822a4.988,4.988,0,0,0-.41-2.1c-.31-.565-.1.461-.667.1a3.768,3.768,0,0,1-1.129-1.743,4.4,4.4,0,0,1,.615-3.026c.822-1.54,1.487-3.231,2.1-4.514s1.128-3.794,1.641-5.128a4.34,4.34,0,0,1,1.436-1.949,3.362,3.362,0,0,0,2.462-.05c.05-.207.666-2.565.769-2.719s.306-.769-.1-.873-.052.258-.718-.306a2.216,2.216,0,0,1-.668-1.539c.567.1,1.8-.719,1.8-.719-.306-.666-.1-7.693,0-8.564s-.049-1.487.154-3.539a40.426,40.426,0,0,0-.1-5.589c-.053-2.051-.36-1.539-.77-2.359s-.256-.821-.1-1.437.972-.41,1.8-.462.615-.154.819-1.025a1.74,1.74,0,0,0-.513-1.538c.155-1.334.77.975,1.282,1.744s1.949,3.846,1.949,3.846c-.256.666.718,1.795.718,1.795a3.849,3.849,0,0,0,.1,2.257c.256.768.256.923.719,1.333s.306,1.23.41,1.691-.615,1.026-.615,1.026c-.975.923.256.873.256.873l-.307.46c-.923.616.2.667.2.667a7.368,7.368,0,0,0,1.18-.819c.05.2-.567,1.076-.567,1.076-.46.719.36.514.36.514a10.179,10.179,0,0,0,1.488-1.078,7.071,7.071,0,0,0,1.025-2.821c.36-1.384-.41-2.257-.82-3.23a14.335,14.335,0,0,1-.667-2.154c.462.153.72-.975.72-.975-.053-2.309-1.026-1.539-1.334-1.9a3.271,3.271,0,0,1-.565-2c-.1-1.179-.409-2.82-.512-5.231a13.354,13.354,0,0,0-1.8-5.385,1.812,1.812,0,0,1,0-1.691,7.979,7.979,0,0,0,1.949-.668c1.232-.564.82-.77.512-1.436s-.616-2.308-1.127-3.845-1.385-4.206-1.385-4.206c.769.256,1.23-.871,1.742-1.232a3.463,3.463,0,0,0,.822-.819c.512.206.924-.41,1.641-.462s1.487-.359,1.9,0a.653.653,0,0,0,.819.052l-2.1-3.128a16.073,16.073,0,0,0,0-4.309c-.717-2.974-5.435-3.437-5.435-3.437-5.333.206-5.333,5.745-5.333,5.745-.565,1.178-4,.462-4,.462,2.308-5.13-6.877-1.949-7.339-.462s-5.3.364-5.276,4.2c.091-.035-2.377,5.807-2.1,5.759C393.548,1716.528,389.858,1725.437,390.061,1726.668Z"/>
    <path id="Path_232" data-name="Path 232" d="M379.188,1735.589s.014-.052.042-.136C379.013,1735.537,379.188,1735.589,379.188,1735.589Z"/>
  </g>
</svg>
