<svg id="pace4" data-name="pace4" xmlns="http://www.w3.org/2000/svg" width="100%" height="100%" viewBox="0 0 70.789 88.249">
  <path fill="currentcolor" id="Path_234" data-name="Path 234" d="M769.031,1654.991c.009-.076,3.218-1.248,3.218-1.248l4.017-.858,5.37-3.084a50.3,50.3,0,0,0,3.158-6.911c.544-2.073-35.848,8.859-35.848,8.859v-.908s35.121-9.437,35.848-10.283c.98-1.143,2.681-2.322,2.274-4.364s1.972-8.732,1.972-8.732l-2.181-1.259a3.975,3.975,0,0,1-1.475-1.394s-1.658-.413-2.169-4.047a27.72,27.72,0,0,1,.585-8.363c1.062-.982.734-1.308,1.062-1.716s.491-.082.981-.245.162-.653.245-1.225a1.041,1.041,0,0,1,.327-.734c-.247-.49.163-1.145.735-2.043a9.534,9.534,0,0,1,1.387-1.553c.407-.488-.327-1.142.082-1.959s.735,0,1.47-.408.817-.653,1.634-1.961,1.127-.788,2.026-2.1-1.019.515,2-.627,2.036.627,2.036.627c2.367-.653,2.059,1.451,2.059,1.451,1.308.98.465.6.465.6a1.051,1.051,0,0,1,1.143,0c-.573-1.8,1.141-1.8,1.141-1.8-.324-3.512,2.126-4.654,2.126-4.654,2.94-3.023,6.287.734,6.287.734a2.038,2.038,0,0,1,.965.949,1.987,1.987,0,0,0,1.078.934,2.75,2.75,0,0,1,1.547,1.217c.365.848.25.8-.44,1.113s-.407-.226-1.166.264a1.217,1.217,0,0,0-.431,1.4c.652,2.776-.9,2.042-.9,2.042.325.327-.735.653-.735.653l-.573.735c.325.409-1.225.573-.653,1.307s-.409,1.552-.409,1.552c.9,1.062-1.633.735-1.633.735.407.572-.49,1.062-.49,1.062.329.979.08,5.144-.165,6.942a3.923,3.923,0,0,0,.736,2.94,24.819,24.819,0,0,0,.9,4.655c.573,1.47.082,1.8,1.225,1.715s.327,1.306.654,1.961a1.388,1.388,0,0,0,1.877.489c.736-.326.981.49,1.389,1.143s-.326,1.143,1.061.409a5.965,5.965,0,0,1,2.533-.736c.164-1.55,1.634-.162,1.634-.162,1.469,1.224.242,1.469.242,1.469,1.064,1.553-1.386,3.84-1.386,3.84a1.5,1.5,0,0,1-1.183.379l-5.467,12.371c-4.472,10.119-13.093,28.352-13.093,28.352.161.1.777.633,1.034.8,1.388.9,2.693.1,4.488,1.079s2.217,1.368,2.3,3.164-8.005,1.635-9.148,1.471c-.112-.016-.219-.029-.325-.041a8.756,8.756,0,0,0-1.634-.041c-1.062.409-5.185-.467-5.185-.467a8.832,8.832,0,0,1,.415-6.454,5,5,0,0,0,.112-3.287c-.408-.9-.409-1.389,0-1.716a2.841,2.841,0,0,0,.8-2.309c-.162-.9.078-1.286,1.056-1.611s.744-.824.662-2.539,2.722-3.128,2.969-4.518.577-8.822,1.556-8.985-7.043,4.7-7.043,4.7-1.689,4.167-5.387,5.929-8.914.87-9.4,1.116-7.341.774-7.667,1.673l-.923,2.018-.718,3.363a11.411,11.411,0,0,1-.718,2.533,2.409,2.409,0,0,1-2.819,1.083c-1.8-.654-1.906-1.855-1.906-1.855a36.765,36.765,0,0,0,.187-4.519c-.062-2.326.033-5.129.033-5.129v-.283s-.1-.017-.232-.268c-.491-.9.156-4.947.156-4.947Zm34.626,3.833c.181.4-.395,2.656-.408,3.186l12.347-28.461-.1-.042-1.469.817-.327-.654s.653-.407.407-.572a5.982,5.982,0,0,0-1.634-.571c-.735-.164-2.042-.572-3.428-.817a9.838,9.838,0,0,1-2.81-1.527c.521,1.387.363,2.943-2.787,3.126a1.351,1.351,0,0,0-.2.6c0,.982.408,4.248,1.061,5.147a4.829,4.829,0,0,1,.9,2.449,42.563,42.563,0,0,1,.9,4.166c.164,1.306-.443,2.416.13,3.395s-.7,2.823-1.029,4.7-.328,3.093-1.47,3.582S803.249,1657.927,803.657,1658.824Zm-5.718,14.211c.06.194.1.339.135.457l5.175-10.918c-.338.138-.82-1-.94-.564a19.487,19.487,0,0,1-2.98,4.492c-.736.734-.571,1.225-.818,2.531s-.734.818-.652,1.8S797.614,1671.975,797.939,1673.035Z" transform="translate(-748.945 -1592.885)"/>
</svg>
